<?xml version="1.0" encoding="UTF-8" standalone="no"?>
<!DOCTYPE svg PUBLIC "-//W3C//DTD SVG 1.1//EN" "http://www.w3.org/Graphics/SVG/1.1/DTD/svg11.dtd">
<svg width="100%" height="100%" viewBox="0 0 136 51" version="1.1" xmlns="http://www.w3.org/2000/svg" xmlns:xlink="http://www.w3.org/1999/xlink" xml:space="preserve" xmlns:serif="http://www.serif.com/" style="fill-rule:evenodd;clip-rule:evenodd;stroke-linejoin:round;stroke-miterlimit:2;">
    <g transform="matrix(1,0,0,1,-34.4015,-198.571)">
        <path d="M105.825,198.571L75.655,198.571L75.655,210.015C75.655,213.902 73.88,216.411 69.351,216.411C64.823,216.411 63.017,213.902 63.017,210.015L63.017,198.571L36.855,198.571L36.855,220.542L41.873,220.542L41.873,212.219L56.163,212.219L56.163,207.935L41.873,207.935L41.873,202.947L57.907,202.947L57.907,210.413C57.907,216.778 61.701,220.878 69.351,220.878C76.97,220.878 80.765,216.778 80.765,210.413L80.765,202.947L88.2,202.947L88.2,220.542L93.31,220.542L93.31,202.947L100.715,202.947L100.715,210.413C100.715,216.778 104.51,220.878 112.159,220.878C119.778,220.878 123.573,216.778 123.573,210.413L123.573,198.571L118.463,198.571L118.463,210.015C118.463,213.902 116.688,216.411 112.159,216.411C107.631,216.411 105.825,213.902 105.825,210.015L105.825,198.571Z" style="fill:rgb(236,230,214);fill-rule:nonzero;"/>
        <g transform="matrix(2.54992,0,0,2.54992,-152.24,-166.831)">
            <path d="M110.612,148.855L113.396,148.855L115.352,151.915L117.644,151.915L115.496,148.651C116.708,148.267 117.44,147.367 117.44,146.071C117.44,144.271 116.096,143.299 114.092,143.299L108.608,143.299L108.608,151.915L110.612,151.915L110.612,148.855ZM110.612,147.223L110.612,144.991L113.984,144.991C114.932,144.991 115.472,145.399 115.472,146.107C115.472,146.803 114.932,147.223 113.984,147.223L110.612,147.223Z" style="fill:rgb(236,230,214);fill-rule:nonzero;"/>
        </g>
        <g transform="matrix(2.54992,0,0,2.54992,-153.806,-166.831)">
            <path d="M118.388,143.299L118.388,151.915L126.74,151.915L126.74,150.199L120.356,150.199L120.356,148.363L126.056,148.363L126.056,146.671L120.356,146.671L120.356,145.015L126.74,145.015L126.74,143.299L118.388,143.299Z" style="fill:rgb(236,230,214);fill-rule:nonzero;"/>
        </g>
        <g transform="matrix(2.54992,0,0,2.54992,-141.074,-138.323)">
            <path d="M68.816,150.235C69.68,151.339 71.804,152.047 73.784,152.047C76.316,152.047 78.212,151.099 78.212,149.167C78.212,147.283 76.364,146.935 74.108,146.683C71.984,146.443 71.384,146.323 71.384,145.759C71.384,145.243 72.068,144.835 73.424,144.835C74.852,144.835 76.1,145.303 76.784,146.095L78.044,144.763C77.228,143.815 75.5,143.167 73.556,143.167C71.06,143.167 69.416,144.259 69.416,145.975C69.416,147.703 71.072,148.123 73.124,148.351C75.428,148.603 76.136,148.663 76.136,149.383C76.136,150.007 75.2,150.367 73.868,150.367C72.62,150.367 71.084,149.971 70.076,148.783L68.816,150.235Z" style="fill:rgb(236,230,214);fill-rule:nonzero;"/>
        </g>
        <g transform="matrix(2.54992,0,0,2.54992,-142.17,-138.323)">
            <path d="M79.076,143.299L79.076,151.915L87.428,151.915L87.428,150.199L81.044,150.199L81.044,148.363L86.744,148.363L86.744,146.671L81.044,146.671L81.044,145.015L87.428,145.015L87.428,143.299L79.076,143.299Z" style="fill:rgb(236,230,214);fill-rule:nonzero;"/>
        </g>
        <g transform="matrix(2.54992,0,0,2.54992,-142.69,-138.323)">
            <path d="M88.46,151.915L96.284,151.915L96.284,150.199L90.464,150.199L90.464,143.299L88.46,143.299L88.46,151.915Z" style="fill:rgb(236,230,214);fill-rule:nonzero;"/>
        </g>
        <g transform="matrix(2.54992,0,0,2.54992,-145.23,-138.323)">
            <path d="M101.12,151.915L105.416,143.299L103.268,143.299L100.016,149.863L96.776,143.299L94.568,143.299L98.852,151.915L101.12,151.915Z" style="fill:rgb(236,230,214);fill-rule:nonzero;"/>
        </g>
        <g transform="matrix(2.54992,0,0,2.54992,-145.6,-138.323)">
            <path d="M106.004,143.299L106.004,151.915L114.356,151.915L114.356,150.199L107.972,150.199L107.972,148.363L113.672,148.363L113.672,146.671L107.972,146.671L107.972,145.015L114.356,145.015L114.356,143.299L106.004,143.299Z" style="fill:rgb(236,230,214);fill-rule:nonzero;"/>
        </g>
        <g transform="matrix(2.54992,0,0,2.54992,-146.426,-138.323)">
            <path d="M114.68,150.235C115.544,151.339 117.668,152.047 119.648,152.047C122.18,152.047 124.076,151.099 124.076,149.167C124.076,147.283 122.228,146.935 119.972,146.683C117.848,146.443 117.248,146.323 117.248,145.759C117.248,145.243 117.932,144.835 119.288,144.835C120.716,144.835 121.964,145.303 122.648,146.095L123.908,144.763C123.092,143.815 121.364,143.167 119.42,143.167C116.924,143.167 115.28,144.259 115.28,145.975C115.28,147.703 116.936,148.123 118.988,148.351C121.292,148.603 122,148.663 122,149.383C122,150.007 121.064,150.367 119.732,150.367C118.484,150.367 116.948,149.971 115.94,148.783L114.68,150.235Z" style="fill:rgb(236,230,214);fill-rule:nonzero;"/>
        </g>
    </g>
</svg>
